<svg width="111" height="54" viewBox="0 0 111 54" fill="none" xmlns="http://www.w3.org/2000/svg">
<g clip-path="url(#clip0_505_1040)">
<path d="M64.3231 16.7L60.4538 25.5529C60.1133 26.3113 59.7109 26.853 59.2466 27.2245C58.7823 27.5804 58.2096 27.7507 57.5286 27.7507C57.0953 27.7507 56.6619 27.7042 56.2285 27.5959V26.141C56.7238 26.1875 57.0334 26.203 57.1572 26.203C57.5596 26.203 57.9001 26.1256 58.1787 25.9553C58.4573 25.8005 58.6894 25.491 58.8906 25.0576L59.2156 24.3147L56.0273 16.7309H57.8691L60.1598 22.5349L62.5123 16.7309L64.3231 16.7Z" fill="#141927"/>
<path d="M69.9414 16.5606C71.0558 16.5606 71.9999 16.9476 72.7428 17.7369C73.4857 18.5263 73.8571 19.5323 73.8571 20.6931C73.8571 21.8539 73.4857 22.8599 72.7583 23.6492C72.0308 24.4385 71.1022 24.8255 69.9879 24.8255C69.4152 24.8255 68.8735 24.7171 68.3782 24.485C67.8984 24.2528 67.5115 23.9433 67.2174 23.5409V24.6552H65.6233V12.5056H67.3258V17.675C67.9603 16.9166 68.858 16.5297 70.0033 16.5297L69.9414 16.5606ZM69.6938 23.3087C70.3903 23.3087 70.932 23.0456 71.4118 22.5658C71.8761 22.086 72.1082 21.4514 72.1082 20.6776C72.1082 19.9192 71.8761 19.3156 71.4118 18.8048C70.9474 18.325 70.3593 18.0774 69.6628 18.0774C68.9973 18.0774 68.4401 18.3096 67.9603 18.7584C67.4806 19.2072 67.2639 19.8573 67.2639 20.7085C67.2639 21.5598 67.5115 22.2253 67.9758 22.6587C68.4401 23.092 69.0128 23.3087 69.6783 23.3087H69.6938Z" fill="#141927"/>
<path d="M52.0653 33.3071C52.9784 33.3071 53.7214 33.6167 54.2476 34.1893C54.7738 34.762 55.0369 35.5204 55.0369 36.4954V41.4791H53.3344V36.7276C53.3344 36.1859 53.1797 35.7216 52.8546 35.3966C52.5296 35.0561 52.1117 34.8858 51.601 34.8858C51.0747 34.8858 50.6414 35.0561 50.3009 35.3966C49.9604 35.7371 49.8056 36.1704 49.8056 36.6967V41.4791H48.0876V33.4929H49.6818V34.2822C50.2854 33.6322 51.0747 33.3226 52.0653 33.3226V33.3071Z" fill="#141927"/>
<path d="M64.5089 38.0122H58.5812C58.6895 38.6777 58.9836 39.1885 59.4479 39.5754C59.9122 39.9469 60.5003 40.1171 61.1968 40.1171C62.0171 40.1171 62.8064 39.8076 63.5184 39.1885L64.3232 40.3493C63.4255 41.2005 62.3576 41.6184 61.1504 41.6184C59.9277 41.6184 58.8907 41.216 58.0859 40.4267C57.2811 39.6373 56.8787 38.6313 56.8787 37.4705C56.8787 36.3097 57.2811 35.3192 58.0704 34.5144C58.8597 33.7095 59.8348 33.3071 60.9801 33.3071C62.0326 33.3071 62.9148 33.6476 63.6112 34.3441C64.3077 35.0406 64.6637 35.9228 64.6637 36.9752C64.6637 36.9443 64.6482 37.6098 64.5089 38.0122ZM60.9182 34.7465C60.361 34.7465 59.8658 34.9168 59.4324 35.2727C59.0145 35.6287 58.7359 36.093 58.6121 36.7121H62.9457C62.9302 36.1085 62.729 35.6442 62.3421 35.2727C61.9552 34.9168 61.4754 34.7465 60.8872 34.7465H60.9182Z" fill="#141927"/>
<path d="M82.9113 21.2502H76.9835C77.0918 21.9158 77.3859 22.4265 77.8502 22.8134C78.3146 23.1849 78.9027 23.3551 79.5992 23.3551C80.4195 23.3551 81.2088 23.0456 81.9208 22.4265L82.7256 23.5873C81.8279 24.4386 80.76 24.8564 79.5527 24.8564C78.33 24.8564 77.2931 24.454 76.4882 23.6647C75.6834 22.8754 75.281 21.8693 75.281 20.7085C75.281 19.5477 75.6834 18.5572 76.4728 17.7524C77.2621 16.9476 78.2372 16.5452 79.3825 16.5452C80.4349 16.5452 81.3171 16.8857 82.0136 17.5821C82.7101 18.2786 83.0661 19.1608 83.0661 20.2133C83.0661 20.1823 83.0661 20.8324 82.9113 21.2502ZM79.3206 17.9845C78.7634 17.9845 78.2681 18.1548 77.8348 18.5108C77.4169 18.8668 77.1383 19.3311 77.0145 19.9502H81.3481C81.3326 19.3465 81.1314 18.8822 80.7445 18.5108C80.3576 18.1548 79.8778 17.9845 79.2896 17.9845H79.3206Z" fill="#141927"/>
<path d="M70.638 40.0706C70.8856 40.0706 71.2107 40.0242 71.675 39.9778V41.4326C71.1487 41.541 70.669 41.6029 70.2511 41.6029C69.3379 41.6029 68.6105 41.3707 68.0997 40.9219C67.589 40.473 67.3259 39.7766 67.3259 38.8479V34.9632H66.0413V33.4774H67.3259V31.3879H69.0438V33.4774H71.4119V34.9632H69.0438V38.6932C69.0438 39.1884 69.1677 39.5444 69.4308 39.7611C69.6939 39.9778 70.0808 40.0706 70.5916 40.0706H70.638Z" fill="#141927"/>
<path d="M85.5579 33.4772L82.0291 41.6182H81.4565L78.9646 36.325L76.4728 41.6182H75.9001L72.3713 33.4772H74.1976L76.2871 38.6776L78.7015 33.2915H79.2742L81.7196 38.6002L83.778 33.4618H85.5889V33.4772H85.5579Z" fill="#141927"/>
<path d="M93.4667 34.4834C92.6464 33.6941 91.6559 33.3071 90.4951 33.3071C89.3188 33.3071 88.3283 33.7095 87.508 34.4989C86.7032 35.2882 86.3008 36.2942 86.3008 37.4395C86.3008 38.6003 86.7032 39.5909 87.508 40.3802C88.3128 41.1695 89.3188 41.572 90.4951 41.5874C91.6559 41.5874 92.6464 41.185 93.4822 40.3802C94.3025 39.5754 94.7049 38.5694 94.7049 37.4241C94.7204 36.2788 94.3025 35.2727 93.4667 34.4834ZM92.2286 39.2813C91.7642 39.7611 91.1761 40.0088 90.4796 40.0088C89.7677 40.0088 89.195 39.7611 88.7152 39.2813C88.2509 38.8015 88.0188 38.1824 88.0188 37.4395C88.0188 36.6966 88.2509 36.093 88.7152 35.5823C89.1795 35.1025 89.7677 34.8549 90.4796 34.8394H90.4951C91.1916 34.8549 91.7642 35.1025 92.244 35.5823C92.7084 36.0621 92.9405 36.6812 92.9405 37.4395C92.9405 38.167 92.6929 38.8015 92.2286 39.2813Z" fill="#141927"/>
<path d="M100.571 33.3999C100.819 33.3999 101.02 33.4309 101.221 33.4773V34.9941H100.695C100.029 34.9941 99.4875 35.1798 99.0387 35.5667C98.6053 35.9536 98.3731 36.4799 98.3731 37.1918V41.479H96.6707V33.4928H98.2648V34.5297C98.822 33.7868 99.5959 33.4154 100.602 33.4154L100.571 33.3999Z" fill="#141927"/>
<path d="M89.0559 16.6536C89.3036 16.6536 89.5048 16.6845 89.706 16.731V18.2477H89.1952C88.5297 18.2477 87.988 18.4334 87.5391 18.8204C87.1058 19.2073 86.8736 19.7335 86.8736 20.4455V24.7327H85.1711V16.7464H86.7653V17.7834C87.3225 17.0405 88.0963 16.669 89.1024 16.669L89.0559 16.6536Z" fill="#141927"/>
<path d="M102.908 29.283H104.61V41.479H102.908V29.283ZM110.182 41.479H108.139L104.672 36.9751L107.783 33.4928H109.888L106.684 36.9906L110.182 41.479Z" fill="#141927"/>
<path d="M48.0876 12.521H49.7901V24.7016H48.0876V12.521ZM55.3619 24.717H53.3189L49.852 20.2132L52.963 16.7308H55.0679L51.8486 20.2287L55.3619 24.717Z" fill="#141927"/>
<path d="M16.1892 26.9923L36.356 38.5537C37.0525 38.9562 37.9502 38.4454 37.9502 37.6406V16.3439C37.9502 15.5391 37.068 15.0284 36.356 15.4308L16.1892 26.9923Z" fill="#31CB9E"/>
<path d="M35.1797 10.4471L21.7919 0.216654C21.1728 -0.247662 20.2752 0.0773594 20.1049 0.835743L15.2141 23.6182L35.0714 12.2115C35.7369 11.8246 35.7988 10.9114 35.1797 10.4471Z" fill="#31CB9E"/>
<path d="M21.7919 53.7834L35.2107 43.5375C35.8143 43.0732 35.7524 42.16 35.1023 41.7731L15.2141 30.3818L20.1204 53.1643C20.2597 53.9227 21.1574 54.2477 21.7919 53.7834Z" fill="#31CB9E"/>
<path d="M11.0198 26.9922L16.2975 2.44534C16.4987 1.48575 15.3998 0.773796 14.6105 1.39288L1.09888 11.7162C0.402407 12.2424 0 13.0782 0 13.9449V40.0859C0 40.9526 0.402407 41.7884 1.09888 42.3146L14.6105 52.6225C15.3843 53.2106 16.4987 52.5141 16.2975 51.57L11.0198 26.9922Z" fill="#31CB9E"/>
</g>
<defs>
<clipPath id="clip0_505_1040">
<rect width="110.182" height="54" fill="white"/>
</clipPath>
</defs>
</svg>
